<?xml version="1.0" encoding="UTF-8" standalone="no"?>
<!-- Created with Inkscape (http://www.inkscape.org/) -->

<svg
   width="140mm"
   height="115mm"
   viewBox="0 0 140 115"
   version="1.1"
   id="svg1"
   xmlns="http://www.w3.org/2000/svg"
   xmlns:svg="http://www.w3.org/2000/svg"
   xmlns:rdf="http://www.w3.org/1999/02/22-rdf-syntax-ns#"
   xmlns:cc="http://creativecommons.org/ns#"
   xmlns:dc="http://purl.org/dc/elements/1.1/">
  <title
     id="title17">DOGHOUSE</title>
  <defs
     id="defs1">
    <rect
       x="286.6994"
       y="494.3555"
       width="279.11481"
       height="118.25959"
       id="rect16" />
  </defs>
  <g
     id="layer1">
    <path
       style="fill:#fdf0d5;stroke-width:0.264583"
       d="m 22.081634,110.75309 h 67.17408 L 103.59624,47.730218 59.442494,15.275328 10.382778,41.692098 Z"
       id="path1" />
    <path
       style="fill:#cda182;fill-opacity:1;stroke-width:0.264583"
       d="M 36.422168,110.75309 C 4.7220411,40.559958 62.838944,44.711158 62.838944,44.711158 c 0,0 17.35959,3.77383 20.37865,15.85006 5.07196,20.28783 -2.30739,30.08877 -2.14301,37.71938 0.25532,11.851712 -2.99641,12.579512 -2.99641,12.579512 z"
       id="path2" />
    <path
       style="fill:#f4d7c3;fill-opacity:1;stroke-width:0.264583"
       d="m 88.878324,110.95536 28.681066,-28.505952 4.15121,-43.77637 -16.99647,3.6254 z"
       id="path5" />
    <path
       style="fill:#c83737;fill-opacity:1;stroke-width:0.264583"
       d="M 59.442494,17.539625 109.63436,53.768338 136.06422,33.920768 78.311624,5.4633854 Z"
       id="path6" />
    <path
       style="fill:#c83737;fill-opacity:1;stroke-width:0.264583"
       d="M 59.819884,17.539625 1.7029821,47.352838 23.503046,29.355336 79.066384,5.0860024 Z"
       id="path7" />
    <path
       style="fill:#800000;fill-opacity:1;stroke-width:0.264583"
       d="M 61.329414,15.275328 81.330684,3.1990924 134.5416,33.012304 110.01174,51.126668 Z"
       id="path8" />
    <path
       style="fill:#800000;fill-opacity:1;stroke-width:0.264583"
       d="M 61.329414,14.520565 2.8168181,45.843308 24.112594,28.34288 81.330684,3.1990924 Z"
       id="path9" />
    <path
       style="fill:#f4d7c3;fill-opacity:1;stroke-width:0.264583"
       d="m 100.63163,61.226498 -15.149746,1.9764 14.46696,1.56398 z"
       id="path10" />
    <path
       style="fill:#f4d7c3;fill-opacity:1;stroke-width:0.264583"
       d="m 19.045052,93.321528 0.682795,3.23497 9.524054,-0.52132 z"
       id="path11" />
    <path
       style="fill:#550000;fill-opacity:1;stroke-width:0.264583"
       d="m 83.217594,28.106334 13.58577,-9.05718 -13.20839,11.698857 z"
       id="path12" />
    <path
       style="fill:#550000;fill-opacity:1;stroke-width:0.264583"
       d="m 90.207774,24.968847 5.84184,4.899609 -5.08806,-6.218735 z"
       id="path13" />
    <path
       style="fill:#c83737;fill-opacity:1;stroke-width:0.264583"
       d="m 23.723408,64.995848 68.255456,6.59473 -5.60552,22.42208 -67.595982,-13.84893 z"
       id="path14" />
    <path
       style="fill:#800000;fill-opacity:1;stroke-width:0.264583"
       d="m 24.712617,63.347168 -3.627102,15.16788 67.266249,14.17866 4.28657,-22.09234 z"
       id="path15" />
    <path
       style="fill:#cda182;fill-opacity:1;stroke-width:0.264583"
       d="m 79.601434,92.709158 3.37692,0.58168 -2.5618,17.467412 -3.0051,0.0649 z"
       id="path16" />
    <text
       xml:space="preserve"
       transform="matrix(0.25839062,0.03917751,-0.03202264,0.25561052,-34.664741,-71.345293)"
       id="text16"
       style="font-size:37.3333px;white-space:pre;shape-inside:url(#rect16);shape-padding:0.411004;display:inline;fill:#cda182;fill-opacity:1"><tspan
         x="287.10938"
         y="528.82593"
         id="tspan2"><tspan
           style="font-family:Cambria;-inkscape-font-specification:Cambria"
           id="tspan1">COMING SOON...</tspan></tspan></text>
    <ellipse
       style="fill:#ac9393;fill-opacity:1;stroke-width:0.264583"
       id="path17"
       cx="90.610039"
       cy="72.052589"
       rx="0.66463649"
       ry="0.71211052" />
    <ellipse
       style="fill:#ac9393;fill-opacity:1;stroke-width:0.264583"
       id="path17-7"
       cx="87.453712"
       cy="90.700142"
       rx="0.66463649"
       ry="0.71211052" />
    <ellipse
       style="fill:#ac9393;fill-opacity:1;stroke-width:0.264583"
       id="path17-2"
       cx="26.081907"
       cy="64.908043"
       rx="0.66463649"
       ry="0.71211052" />
  </g>
  <metadata
     id="metadata17">
    <rdf:RDF>
      <cc:Work
         rdf:about="">
        <dc:title>DOGHOUSE</dc:title>
      </cc:Work>
    </rdf:RDF>
  </metadata>
</svg>
